HIERARCHY
ROOT Hips
{
	OFFSET 0.000000 88.474243 0.000000
	CHANNELS 6 Xposition Yposition Zposition Zrotation Yrotation Xrotation 
	JOINT Hips_Spine
	{
		OFFSET 0.000000 0.000000 0.000000
		CHANNELS 3 Zrotation Yrotation Xrotation
		JOINT Spine
		{
			OFFSET 0.005100 8.711998 -0.691000
			CHANNELS 3 Zrotation Yrotation Xrotation
			JOINT Spine1
			{
				OFFSET -0.009200 8.660301 -1.275000
				CHANNELS 3 Zrotation Yrotation Xrotation
				JOINT Spine2
				{
					OFFSET 0.006300 9.852501 -1.857000
					CHANNELS 3 Zrotation Yrotation Xrotation
					JOINT Spine2_Neck
					{
						OFFSET 0.000000 0.000000 0.000000
						CHANNELS 3 Zrotation Yrotation Xrotation
						JOINT Neck
						{
							OFFSET 0.016300 11.420799 -0.263300
							CHANNELS 3 Zrotation Yrotation Xrotation
							End Site #name: Head
							{
								OFFSET -0.019200 9.262405 2.362500
							}
						}
					}
					JOINT Spine2_LeftShoulder
					{
						OFFSET 0.000000 0.000000 0.000000
						CHANNELS 3 Zrotation Yrotation Xrotation
						JOINT LeftShoulder
						{
							OFFSET 5.616900 6.732201 -0.345700
							CHANNELS 3 Zrotation Yrotation Xrotation
							JOINT LeftArm
							{
								OFFSET 10.664888 -0.183372 -2.440700
								CHANNELS 3 Zrotation Yrotation Xrotation
								JOINT LeftForeArm
								{
									OFFSET 27.459126 0.000000 0.000000
									CHANNELS 3 Zrotation Yrotation Xrotation
									End Site #name: LeftHand
									{
										OFFSET 21.306858 0.000000 0.000000
									}
								}
							}
						}
					}
					JOINT Spine2_RightShoulder
					{
						OFFSET 0.000000 0.000000 0.000000
						CHANNELS 3 Zrotation Yrotation Xrotation
						JOINT RightShoulder
						{
							OFFSET -5.580300 6.737503 -0.344400
							CHANNELS 3 Zrotation Yrotation Xrotation
							JOINT RightArm
							{
								OFFSET -10.679335 -0.188484 -2.383900
								CHANNELS 3 Zrotation Yrotation Xrotation
								JOINT RightForeArm
								{
									OFFSET -27.503529 0.000000 0.000000
									CHANNELS 3 Zrotation Yrotation Xrotation
									End Site #name: RightHand
									{
										OFFSET -21.306808 0.000000 0.000000
									}
								}
							}
						}
					}
				}
			}
		}
	}
	JOINT Hips_LeftUpLeg
	{
		OFFSET 0.000000 0.000000 0.000000
		CHANNELS 3 Zrotation Yrotation Xrotation
		JOINT LeftUpLeg
		{
			OFFSET 6.857700 -6.739601 0.312100
			CHANNELS 3 Zrotation Yrotation Xrotation
			JOINT LeftLeg
			{
				OFFSET -0.367590 -34.731552 -4.572400
				CHANNELS 3 Zrotation Yrotation Xrotation
				End Site #name: LeftFoot
				{
					OFFSET 0.367590 -34.656704 -6.067400
				}
			}
		}
	}
	JOINT Hips_RightUpLeg
	{
		OFFSET 0.000000 0.000000 0.000000
		CHANNELS 3 Zrotation Yrotation Xrotation
		JOINT RightUpLeg
		{
			OFFSET -6.876100 -6.733299 0.301000
			CHANNELS 3 Zrotation Yrotation Xrotation
			JOINT RightLeg
			{
				OFFSET 0.347353 -34.795158 -4.515900
				CHANNELS 3 Zrotation Yrotation Xrotation
				End Site #name: RightFoot
				{
					OFFSET -0.347353 -34.589367 -6.070300
				}
			}
		}
	}
}
MOTION
Frames: 18
Frame Time: 0.041667
-0.432450 0.227606 0.214569 0.706697 -3.530887 -2.818205 0.000000 -0.000000 0.000000 -2.294066 1.855793 -0.716434 -3.382427 3.980196 -2.501896 0.000000 0.000000 0.000000 -3.815125 3.805452 -3.104083 -0.067388 0.003384 0.438328 -3.421150 3.977376 -2.439525 -9.993678 -1.745350 0.892427 -47.332057 3.235170 22.271281 -1.269184 -82.903516 1.063440 -3.665807 3.916006 -2.745090 9.265501 5.174178 1.535188 61.338748 18.090685 10.808212 171.632932 88.945006 171.822458 0.000000 -0.000000 -0.000000 3.178685 8.464726 -19.830941 -1.949909 -0.552429 20.495112 0.000000 -0.000000 0.000000 -6.121245 -9.535851 -15.016729 1.156717 -1.297113 27.256670 
-0.446625 0.234817 0.221146 0.720098 -3.551148 -2.821268 0.000000 -0.000000 0.000000 -2.280254 1.838918 -0.705095 -3.341595 3.943525 -2.477208 0.000000 0.000000 0.000000 -3.774402 3.772897 -3.082067 -0.071692 0.019873 0.425650 -3.390020 3.944451 -2.416584 -9.998638 -1.651146 0.878270 -47.299986 3.025100 22.522061 -1.260644 -83.015066 1.059678 -3.625499 3.884275 -2.721173 9.303563 5.221120 1.544143 61.204027 17.307693 10.461185 168.279614 89.258353 168.470451 0.000000 -0.000000 -0.000000 3.176802 8.467777 -19.817009 -1.950571 -0.550977 20.485226 0.000000 -0.000000 0.000000 -6.123635 -9.515993 -15.019279 1.156835 -1.299104 27.271563 
-0.459960 0.241988 0.228034 0.731944 -3.571158 -2.823099 0.000000 -0.000000 0.000000 -2.264979 1.819924 -0.690066 -3.297686 3.904917 -2.448694 0.000000 0.000000 0.000000 -3.730649 3.738439 -3.059037 -0.075773 0.042887 0.410407 -3.353720 3.908824 -2.391038 -10.020553 -1.531364 0.856551 -47.259910 2.786734 22.781740 -1.258459 -83.142901 1.059812 -3.583183 3.851727 -2.695710 9.340231 5.270145 1.552365 61.059101 16.516451 10.031414 159.584541 89.580092 159.776363 0.000000 -0.000000 -0.000000 3.174872 8.470770 -19.809516 -1.949788 -0.549907 20.484311 0.000000 -0.000000 0.000000 -6.126008 -9.503458 -15.022726 1.157039 -1.297262 27.287085 
-0.472346 0.249082 0.235212 0.742131 -3.589019 -2.824709 0.000000 -0.000000 0.000000 -2.247578 1.800687 -0.675999 -3.251340 3.863791 -2.420615 0.000000 0.000000 0.000000 -3.684464 3.701886 -3.034037 -0.080596 0.069086 0.392922 -3.316211 3.870582 -2.362547 -10.034186 -1.402771 0.835715 -47.212316 2.589178 23.034054 -1.259574 -83.333210 1.064900 -3.537431 3.815733 -2.667757 9.379001 5.319039 1.559694 60.922890 15.724243 9.619813 115.719057 89.842089 115.911446 0.000000 -0.000000 -0.000000 3.170904 8.472369 -19.803994 -1.951363 -0.550438 20.487215 0.000000 -0.000000 0.000000 -6.127325 -9.486838 -15.027988 1.159170 -1.295156 27.305260 
-0.483606 0.256193 0.242595 0.751030 -3.609349 -2.825790 0.000000 -0.000000 0.000000 -2.226250 1.779721 -0.659977 -3.202410 3.820499 -2.387056 0.000000 0.000000 0.000000 -3.636105 3.663215 -3.007505 -0.084254 0.098887 0.371930 -3.276661 3.830591 -2.333760 -10.056046 -1.265799 0.814028 -47.185534 2.355330 23.306001 -1.282642 -83.489000 1.091826 -3.489216 3.778178 -2.638159 9.409336 5.371299 1.566506 60.800240 14.915577 9.217024 26.735734 89.697777 26.932043 0.000000 -0.000000 -0.000000 3.169500 8.472108 -19.796963 -1.954052 -0.549035 20.488959 0.000000 -0.000000 0.000000 -6.130024 -9.469482 -15.037636 1.159131 -1.294834 27.331331 
-0.493634 0.263338 0.250212 0.757806 -3.631296 -2.825183 0.000000 -0.000000 0.000000 -2.202669 1.757241 -0.645449 -3.153051 3.773601 -2.345975 0.000000 0.000000 0.000000 -3.585173 3.622357 -2.979536 -0.087751 0.132716 0.349830 -3.234441 3.788653 -2.302654 -10.079960 -1.127349 0.791226 -47.160150 2.138735 23.539549 -1.281000 -83.612126 1.093656 -3.440010 3.739328 -2.607040 9.435937 5.421125 1.572441 60.736353 14.262770 8.859486 11.879515 89.373472 12.081759 0.000000 -0.000000 -0.000000 3.168181 8.476488 -19.796199 -1.955659 -0.547257 20.494186 0.000000 -0.000000 0.000000 -6.130301 -9.452123 -15.046030 1.158685 -1.295861 27.349308 
-0.502348 0.270444 0.258069 0.763792 -3.658234 -2.823841 0.000000 -0.000000 0.000000 -2.181668 1.735197 -0.629973 -3.100277 3.724362 -2.305937 0.000000 0.000000 0.000000 -3.532336 3.580167 -2.950613 -0.088079 0.171518 0.327786 -3.191424 3.744165 -2.269023 -10.103482 -0.983779 0.767222 -47.141175 1.906613 23.780700 -1.295429 -83.811895 1.112964 -3.387994 3.697350 -2.576218 9.455505 5.474388 1.577661 60.704146 13.570111 8.496262 7.168200 89.027700 7.376369 0.000000 -0.000000 -0.000000 3.166743 8.480075 -19.791936 -1.957948 -0.547976 20.493392 0.000000 -0.000000 0.000000 -6.131262 -9.434231 -15.055764 1.161158 -1.293527 27.368788 
-0.509715 0.277458 0.266072 0.767791 -3.683837 -2.821912 0.000000 -0.000000 0.000000 -2.164739 1.715328 -0.585560 -3.056434 3.677394 -2.259173 0.000000 0.000000 0.000000 -3.477300 3.534448 -2.919433 -0.090383 0.212442 0.305093 -3.145474 3.697041 -2.234799 -10.125179 -0.840424 0.743664 -47.172089 1.675754 23.956011 -1.326177 -84.010672 1.148543 -3.334477 3.653029 -2.542329 9.470791 5.531670 1.583812 60.683580 12.857122 8.135968 5.603531 88.851041 5.817630 0.000000 -0.000000 -0.000000 3.166830 8.483703 -19.792108 -1.960660 -0.547101 20.497869 0.000000 -0.000000 0.000000 -6.131740 -9.423307 -15.065369 1.160920 -1.291914 27.385562 
-0.515631 0.284489 0.274231 0.770658 -3.708225 -2.819127 0.000000 -0.000000 0.000000 -2.146059 1.694021 -0.532863 -3.011250 3.627338 -2.211480 0.000000 0.000000 0.000000 -3.420816 3.486739 -2.886038 -0.093320 0.256735 0.281248 -3.098230 3.647152 -2.197674 -10.142613 -0.698790 0.721495 -47.194392 1.455143 24.123842 -1.361146 -84.211981 1.190058 -3.280292 3.606988 -2.508085 9.484137 5.591596 1.589291 60.679737 12.114212 7.780850 4.550563 88.718395 4.772568 0.000000 -0.000000 -0.000000 3.166713 8.489004 -19.793241 -1.963854 -0.545919 20.503208 0.000000 -0.000000 0.000000 -6.131285 -9.408772 -15.074853 1.160090 -1.291764 27.401058 
-0.520201 0.291512 0.282455 0.771513 -3.731118 -2.814943 0.000000 -0.000000 0.000000 -2.128308 1.669957 -0.482640 -2.964980 3.576388 -2.162233 0.000000 0.000000 0.000000 -3.363870 3.437820 -2.852429 -0.096130 0.304872 0.256778 -3.046681 3.592657 -2.157385 -10.184990 -0.550999 0.695870 -47.194910 1.249430 24.253221 -1.397475 -84.385442 1.231072 -3.225122 3.558370 -2.471264 9.505710 5.652634 1.594911 60.698717 11.356675 7.400649 3.723000 88.591627 3.953038 0.000000 -0.000000 0.000000 3.165693 8.497044 -19.796089 -1.968007 -0.545897 20.510119 0.000000 -0.000000 0.000000 -6.130246 -9.397982 -15.087832 1.160977 -1.291190 27.419385 
-0.523505 0.298435 0.290646 0.771202 -3.752266 -2.808726 0.000000 -0.000000 0.000000 -2.110191 1.647363 -0.434479 -2.918409 3.524417 -2.125359 0.000000 0.000000 0.000000 -3.308115 3.387821 -2.818308 -0.098623 0.358383 0.224131 -2.995604 3.538661 -2.113554 -10.227704 -0.420505 0.672737 -47.161570 1.097360 24.384051 -1.446384 -84.575805 1.286344 -3.169245 3.508560 -2.431574 9.536071 5.718406 1.602081 60.745787 10.618076 7.010567 3.070517 88.480604 3.308010 0.000000 -0.000000 0.000000 3.164215 8.502466 -19.803871 -1.972097 -0.545031 20.517548 0.000000 -0.000000 0.000000 -6.129450 -9.386378 -15.103224 1.158930 -1.291654 27.437617 
-0.525569 0.305313 0.298804 0.769565 -3.774802 -2.800623 0.000000 -0.000000 0.000000 -2.094384 1.622925 -0.374886 -2.871758 3.472148 -2.088198 0.000000 0.000000 0.000000 -3.253152 3.337599 -2.782425 -0.099038 0.416519 0.190372 -2.940415 3.482666 -2.067222 -10.276223 -0.299273 0.650923 -47.094311 0.951241 24.483248 -1.502336 -84.767102 1.347047 -3.114530 3.458895 -2.391161 9.579692 5.781310 1.611904 60.838083 9.956863 6.656533 2.478743 88.367062 2.722727 0.000000 -0.000000 0.000000 3.162631 8.509178 -19.813248 -1.975510 -0.540972 20.524582 0.000000 -0.000000 0.000000 -6.129630 -9.375811 -15.109806 1.159885 -1.292592 27.439244 
-0.526521 0.312182 0.306810 0.767199 -3.797242 -2.792096 0.000000 -0.000000 0.000000 -2.080965 1.600523 -0.315118 -2.824566 3.419544 -2.052267 0.000000 0.000000 0.000000 -3.197799 3.285536 -2.746747 -0.101199 0.476530 0.154540 -2.886577 3.425014 -2.020220 -10.319531 -0.180809 0.631468 -47.023991 0.815775 24.590368 -1.579638 -84.985076 1.431565 -3.058283 3.405542 -2.349251 9.641521 5.845714 1.624585 60.975831 9.427949 6.381672 1.978007 88.263072 2.226828 0.000000 -0.000000 0.000000 3.161425 8.513700 -19.825912 -1.978806 -0.537271 20.534778 0.000000 -0.000000 0.000000 -6.130535 -9.367245 -15.120848 1.158712 -1.293882 27.443019 
-0.526212 0.319066 0.314662 0.764364 -3.817374 -2.782490 0.000000 -0.000000 0.000000 -2.066260 1.576470 -0.257154 -2.778049 3.364827 -2.014202 0.000000 0.000000 0.000000 -3.143316 3.230761 -2.709406 -0.102326 0.542596 0.111772 -2.832735 3.362986 -1.968274 -10.363561 -0.064991 0.613286 -46.945424 0.706798 24.703179 -1.689187 -85.261418 1.547550 -3.003319 3.350937 -2.306469 9.699941 5.905353 1.642154 61.145171 9.061632 6.173796 1.601701 88.162184 1.852583 0.000000 -0.000000 0.000000 3.158972 8.518616 -19.841488 -1.984518 -0.531631 20.543419 0.000000 -0.000000 0.000000 -6.132345 -9.356906 -15.133650 1.158113 -1.295452 27.447706 
-0.524471 0.325979 0.322324 0.761665 -3.835598 -2.771073 0.000000 -0.000000 0.000000 -2.055720 1.551370 -0.204902 -2.732563 3.307345 -1.975916 0.000000 0.000000 0.000000 -3.090096 3.173370 -2.671851 -0.101697 0.605718 0.064717 -2.788518 3.301904 -1.919529 -10.410017 0.043819 0.595524 -46.900882 0.573661 24.777324 -1.847009 -85.586745 1.713470 -2.949080 3.291577 -2.263162 9.735496 5.966316 1.665691 61.343050 8.828565 6.017958 1.332632 88.073464 1.583151 0.000000 -0.000000 0.000000 3.156112 8.522970 -19.853241 -1.990089 -0.525742 20.544055 0.000000 -0.000000 0.000000 -6.133929 -9.345718 -15.143923 1.159244 -1.297733 27.442909 
-0.521157 0.332993 0.329658 0.759375 -3.855641 -2.759297 0.000000 -0.000000 0.000000 -2.042731 1.523010 -0.155428 -2.688415 3.248313 -1.939280 0.000000 0.000000 0.000000 -3.038074 3.112832 -2.633497 -0.104921 0.666104 0.011844 -2.750779 3.240180 -1.873733 -10.461020 0.139755 0.582125 -46.856560 0.445872 24.798716 -2.042286 -85.981173 1.913446 -2.897231 3.230785 -2.218861 9.737068 6.018353 1.686391 61.530335 8.624541 5.865908 1.129494 88.009469 1.379329 0.000000 -0.000000 0.000000 3.153010 8.526353 -19.866819 -1.995730 -0.519211 20.544648 0.000000 -0.000000 0.000000 -6.135703 -9.331886 -15.148316 1.160869 -1.301471 27.423917 
-0.516182 0.340181 0.336552 0.756544 -3.877159 -2.746819 0.000000 -0.000000 0.000000 -2.030141 1.493765 -0.108651 -2.644172 3.187656 -1.901749 0.000000 0.000000 0.000000 -2.986498 3.050848 -2.594878 -0.109914 0.721762 -0.047049 -2.713035 3.179838 -1.830101 -10.525311 0.235555 0.570322 -46.821952 0.309050 24.827891 -2.251396 -86.343434 2.129661 -2.845647 3.169106 -2.176005 9.712057 6.065051 1.704488 61.708760 8.420717 5.757599 0.985930 87.957510 1.235685 0.000000 -0.000000 0.000000 3.147924 8.529418 -19.885766 -1.999743 -0.512218 20.547247 0.000000 -0.000000 0.000000 -6.138294 -9.316875 -15.153858 1.163374 -1.303601 27.403107 
-0.509531 0.347553 0.343140 0.752755 -3.899621 -2.734176 0.000000 -0.000000 0.000000 -2.015225 1.464254 -0.064105 -2.600908 3.124994 -1.862922 0.000000 0.000000 0.000000 -2.936288 2.987229 -2.556747 -0.120064 0.775514 -0.108791 -2.672700 3.124891 -1.784836 -10.604290 0.337281 0.558399 -46.779339 0.143860 24.871086 -2.566800 -86.762461 2.452551 -2.796195 3.105701 -2.133481 9.686762 6.156275 1.731094 61.876770 8.228260 5.600124 0.890569 87.899638 1.142657 0.000000 -0.000000 0.000000 3.143053 8.534141 -19.900215 -2.001950 -0.504663 20.535759 0.000000 -0.000000 0.000000 -6.141927 -9.300169 -15.155718 1.166118 -1.309892 27.372068 
